REM MD5 d1484cbcad1c8c1d6473fc9c401e1213
FILE "Black Dawn (USA).bin" BINARY
  TRACK 01 MODE2/2352
    INDEX 01 00:00:00
  TRACK 02 AUDIO
    INDEX 00 21:37:04
    INDEX 01 21:39:04
  TRACK 03 AUDIO
    INDEX 00 23:47:08
    INDEX 01 23:49:08
  TRACK 04 AUDIO
    INDEX 00 25:57:35
    INDEX 01 25:59:35
  TRACK 05 AUDIO
    INDEX 00 28:13:15
    INDEX 01 28:15:15
  TRACK 06 AUDIO
    INDEX 00 29:58:62
    INDEX 01 30:00:62
  TRACK 07 AUDIO
    INDEX 00 32:03:62
    INDEX 01 32:05:62
  TRACK 08 AUDIO
    INDEX 00 34:12:69
    INDEX 01 34:14:69
  TRACK 09 AUDIO
    INDEX 00 36:08:69
    INDEX 01 36:10:69
  TRACK 10 AUDIO
    INDEX 00 37:11:61
    INDEX 01 37:13:61
  TRACK 11 AUDIO
    INDEX 00 39:13:46
    INDEX 01 39:15:46
  TRACK 12 AUDIO
    INDEX 00 41:20:23
    INDEX 01 41:22:23
  TRACK 13 AUDIO
    INDEX 00 41:43:09
    INDEX 01 41:45:09
  TRACK 14 AUDIO
    INDEX 00 41:54:70
    INDEX 01 41:56:70
  TRACK 15 AUDIO
    INDEX 00 42:04:27
    INDEX 01 42:06:27
  TRACK 16 AUDIO
    INDEX 00 42:15:11
    INDEX 01 42:17:11
  TRACK 17 AUDIO
    INDEX 00 42:33:50
    INDEX 01 42:35:50
  TRACK 18 AUDIO
    INDEX 00 42:49:40
    INDEX 01 42:51:40
  TRACK 19 AUDIO
    INDEX 00 42:56:23
    INDEX 01 42:58:23
  TRACK 20 AUDIO
    INDEX 00 43:09:27
    INDEX 01 43:11:27
  TRACK 21 AUDIO
    INDEX 00 43:13:71
    INDEX 01 43:15:71
  TRACK 22 AUDIO
    INDEX 00 43:41:29
    INDEX 01 43:43:29
  TRACK 23 AUDIO
    INDEX 00 43:56:31
    INDEX 01 43:58:31
  TRACK 24 AUDIO
    INDEX 00 44:05:31
    INDEX 01 44:07:31
  TRACK 25 AUDIO
    INDEX 00 44:17:29
    INDEX 01 44:19:29
  TRACK 26 AUDIO
    INDEX 00 44:25:53
    INDEX 01 44:27:53
  TRACK 27 AUDIO
    INDEX 00 44:47:05
    INDEX 01 44:49:05
  TRACK 28 AUDIO
    INDEX 00 44:55:56
    INDEX 01 44:57:56
  TRACK 29 AUDIO
    INDEX 00 45:07:16
    INDEX 01 45:09:16
  TRACK 30 AUDIO
    INDEX 00 45:16:18
    INDEX 01 45:18:18
  TRACK 31 AUDIO
    INDEX 00 45:40:37
    INDEX 01 45:42:37
  TRACK 32 AUDIO
    INDEX 00 45:52:40
    INDEX 01 45:54:40
  TRACK 33 AUDIO
    INDEX 00 46:01:59
    INDEX 01 46:03:59
  TRACK 34 AUDIO
    INDEX 00 46:11:10
    INDEX 01 46:13:10
  TRACK 35 AUDIO
    INDEX 00 46:33:71
    INDEX 01 46:35:71
  TRACK 36 AUDIO
    INDEX 00 46:46:52
    INDEX 01 46:48:52
  TRACK 37 AUDIO
    INDEX 00 46:58:54
    INDEX 01 47:00:54
  TRACK 38 AUDIO
    INDEX 00 47:05:10
    INDEX 01 47:07:10
  TRACK 39 AUDIO
    INDEX 00 47:25:73
    INDEX 01 47:27:73
  TRACK 40 AUDIO
    INDEX 00 47:39:55
    INDEX 01 47:41:55
  TRACK 41 AUDIO
    INDEX 00 47:58:03
    INDEX 01 48:00:03
  TRACK 42 AUDIO
    INDEX 00 48:09:64
    INDEX 01 48:11:64
  TRACK 43 AUDIO
    INDEX 00 48:14:26
    INDEX 01 48:16:26
  TRACK 44 AUDIO
    INDEX 00 48:19:26
    INDEX 01 48:21:26
  TRACK 45 AUDIO
    INDEX 00 50:19:42
    INDEX 01 50:21:42
  TRACK 46 AUDIO
    INDEX 00 52:24:48
    INDEX 01 52:26:48
  TRACK 47 AUDIO
    INDEX 00 54:40:51
    INDEX 01 54:42:51
  TRACK 48 AUDIO
    INDEX 00 56:36:50
    INDEX 01 56:38:50
  TRACK 49 AUDIO
    INDEX 00 58:41:11
    INDEX 01 58:43:11
  TRACK 50 AUDIO
    INDEX 00 60:40:44
    INDEX 01 60:42:44
  TRACK 51 AUDIO
    INDEX 00 61:13:60
    INDEX 01 61:15:60
  TRACK 52 AUDIO
    INDEX 00 61:48:23
    INDEX 01 61:50:23
REM LEADOUT 64:50:24
